<?xml version="1.0" encoding="UTF-8"?>
<svg width="150" height="150" version="1.1" viewBox="0 0 300 300" xmlns="http://www.w3.org/2000/svg" xmlns:cc="http://creativecommons.org/ns#" xmlns:dc="http://purl.org/dc/elements/1.1/" xmlns:rdf="http://www.w3.org/1999/02/22-rdf-syntax-ns#">
<metadata>
<rdf:RDF>
<cc:Work rdf:about="">
<dc:format>image/svg+xml</dc:format>
<dc:type rdf:resource="http://purl.org/dc/dcmitype/StillImage"/>
</cc:Work>
</rdf:RDF>
</metadata>
<path d="m10 70 138.59-69.296 138.59 69.296-138.59 69.296z" fill="#486e3e"/>
<g fill="#5f9152">
<path d="m148.59 9.3656 8.6621-4.331 8.6621 4.331-8.6621 4.331z"/>
<path d="m235.21 61.338 8.6621-4.331 8.6621 4.331-8.6621 4.331z"/>
<path d="m87.959 91.655 8.6621-4.331 8.6621 4.331-8.6621 4.331z"/>
</g>
<g fill="#476d3e">
<path d="m157.25 13.697 8.6621-4.331 8.6621 4.331-8.6621 4.331z"/>
<path d="m226.55 57.007 8.6621-4.331 8.6621 4.331-8.6621 4.331z"/>
<path d="m183.24 95.986 8.6621-4.331 8.6621 4.331-8.6621 4.331z"/>
<path d="m113.94 78.662 8.6621-4.331 8.6621 4.331-8.6621 4.331z"/>
<path d="m105.28 100.32 8.6621-4.331 8.6621 4.331-8.6621 4.331z"/>
<path d="m79.296 95.986 8.6621-4.331 8.6621 4.331-8.6621 4.331z"/>
<path d="m70.634 100.32 8.6621-4.331 8.6621 4.331-8.6621 4.331z"/>
</g>
<g fill="#416338">
<path d="m165.92 18.028 8.6621-4.331 8.6621 4.331-8.6621 4.331z"/>
<path d="m174.58 22.359 8.6621-4.331 8.6621 4.331-8.6621 4.331z"/>
<path d="m122.61 22.359 8.6621-4.331 8.6621 4.331-8.6621 4.331z"/>
<path d="m174.58 91.655 8.6621-4.331 8.6621 4.331-8.6621 4.331z"/>
<path d="m61.972 61.338 8.6621-4.331 8.6621 4.331-8.6621 4.331z"/>
<path d="m87.959 82.993 8.6621-4.331 8.6621 4.331-8.6621 4.331z"/>
<path d="m10 70 8.6621-4.331 8.6621 4.331-8.6621 4.331z"/>
</g>
<path transform="scale(2)" d="m95.951 11.18-4.3301 2.166 4.3301 2.1641 4.332-2.1641-4.332-2.166zm-51.973 4.3301-4.3301 2.166 4.3301 2.166 4.332-2.166-4.332-2.166zm69.297 17.324-4.3301 2.166 4.3301 2.166 4.332-2.166-4.332-2.166zm-17.324 8.6621-4.3301 2.166 4.3301 2.166 4.332-2.166-4.332-2.166zm17.324 4.332-4.3301 2.1641 4.3301 2.166 4.332-2.166-4.332-2.1641zm-30.316 2.1641-4.332 2.166 4.332 2.166 4.3301-2.166-4.3301-2.166zm12.992 2.166-4.3301 2.166 4.3301 2.166 4.332-2.166-4.332-2.166zm0 4.332-4.3301 2.1641 4.3301 2.166 4.332-2.166-4.332-2.1641z" fill="#466a3c" stroke-width=".5"/>
<g fill="#3e5e35">
<path d="m191.9 31.021 8.6621-4.331 8.6621 4.331-8.6621 4.331z"/>
<path d="m200.57 44.014 8.6621-4.331 8.6621 4.331-8.6621 4.331z"/>
<path d="m183.24 52.676 8.6621-4.331 8.6621 4.331-8.6621 4.331z"/>
<path d="m148.59 61.338 8.6621-4.331 8.6621 4.331-8.6621 4.331z"/>
<path d="m200.57 95.986 8.6621-4.331 8.6621 4.331-8.6621 4.331z"/>
<path d="m157.25 108.98 8.6621-4.331 8.6621 4.331-8.6621 4.331z"/>
</g>
<g fill="#44683b">
<path d="m200.57 35.352 8.6621-4.331 8.6621 4.331-8.6621 4.331z"/>
<path d="m139.93 13.697 8.6621-4.331 8.6621 4.331-8.6621 4.331z"/>
<path d="m243.88 65.669 8.6621-4.331 8.6621 4.331-8.6621 4.331z"/>
<path d="m96.621 61.338 8.6621-4.331 8.6621 4.331-8.6621 4.331z"/>
<path d="m131.27 95.986 8.6621-4.331 8.6621 4.331-8.6621 4.331z"/>
</g>
<path transform="scale(2)" d="m108.95 17.676-4.332 2.166 4.332 2.166 4.3301-2.166-4.3301-2.166zm-73.629 6.4961-4.3301 2.166 4.3301 2.166 4.332-2.166-4.332-2.166zm64.967 23.82-4.332 2.166 4.332 2.166 4.3301-2.166-4.3301-2.166zm-25.986 17.324-4.332 2.166 4.332 2.166 4.3301-2.166-4.3301-2.166z" fill="#4d7542" stroke-width=".5"/>
<g fill="#496f3f">
<path d="m217.89 44.014 8.6621-4.331 8.6621 4.331-8.6621 4.331z"/>
<path d="m139.93 48.345 8.6621-4.331 8.6621 4.331-8.6621 4.331z"/>
<path d="m18.662 74.331 8.6621-4.331 8.6621 4.331-8.6621 4.331z"/>
</g>
<g fill="#43663a">
<path d="m226.55 48.345 8.6621-4.331 8.6621 4.331-8.6621 4.331z"/>
<path d="m131.27 26.69 8.6621-4.331 8.6621 4.331-8.6621 4.331z"/>
<path d="m139.93 57.007 8.6621-4.331 8.6621 4.331-8.6621 4.331z"/>
<path d="m174.58 117.64 8.6621-4.331 8.6621 4.331-8.6621 4.331z"/>
<path d="m61.972 70 8.6621-4.331 8.6621 4.331-8.6621 4.331z"/>
<path d="m105.28 91.655 8.6621-4.331 8.6621 4.331-8.6621 4.331z"/>
<path d="m122.61 100.32 8.6621-4.331 8.6621 4.331-8.6621 4.331z"/>
</g>
<g fill="#426439">
<path d="m235.21 52.676 8.6621-4.331 8.6621 4.331-8.6621 4.331z"/>
<path d="m252.54 70 8.662-4.331 8.6621 4.331-8.6621 4.331z"/>
<path d="m226.55 65.669 8.6621-4.331 8.6621 4.331-8.6621 4.331z"/>
<path d="m165.92 61.338 8.662-4.331 8.6621 4.331-8.6621 4.331z"/>
<path d="m165.92 70 8.662-4.331 8.6621 4.331-8.6621 4.331z"/>
<path d="m87.959 39.683 8.6621-4.331 8.6621 4.331-8.6621 4.331z"/>
<path d="m165.92 78.662 8.662-4.331 8.6621 4.331-8.6621 4.331z"/>
<path d="m131.27 78.662 8.6621-4.331 8.6621 4.331-8.6621 4.331z"/>
<path d="m113.94 113.31 8.662-4.331 8.6621 4.331-8.6621 4.331z"/>
</g>
<g fill="#436639">
<path d="m243.88 57.007 8.6621-4.331 8.6621 4.331-8.6621 4.331z"/>
<path d="m157.25 31.021 8.6621-4.331 8.6621 4.331-8.6621 4.331z"/>
<path d="m105.28 82.993 8.6621-4.331 8.6621 4.331-8.6621 4.331z"/>
<path d="m35.986 82.993 8.6621-4.331 8.6621 4.331-8.6621 4.331z"/>
</g>
<g fill="#517c46">
<path d="m252.54 61.338 8.6621-4.331 8.6621 4.331-8.6621 4.331z"/>
<path d="m235.21 78.662 8.6621-4.331 8.6621 4.331-8.6621 4.331z"/>
<path d="m200.57 70 8.6621-4.331 8.6621 4.331-8.6621 4.331z"/>
<path d="m200.57 87.324 8.6621-4.331 8.6621 4.331-8.6621 4.331z"/>
<path d="m70.634 39.683 8.6621-4.331 8.6621 4.331-8.6621 4.331z"/>
<path d="m139.93 91.655 8.6621-4.331 8.6621 4.331-8.6621 4.331z"/>
</g>
<g fill="#36532f">
<path d="m261.2 65.669 8.6621-4.331 8.6621 4.331-8.6621 4.331z"/>
</g>
<g fill="#45693b">
<path d="m269.86 70 8.6621-4.331 8.6621 4.331-8.6621 4.331z"/>
<path d="m131.27 18.028 8.6621-4.331 8.6621 4.331-8.6621 4.331z"/>
<path d="m200.57 61.338 8.6621-4.331 8.6621 4.331-8.6621 4.331z"/>
<path d="m235.21 87.324 8.6621-4.331 8.6621 4.331-8.6621 4.331z"/>
<path d="m87.959 57.007 8.6621-4.331 8.6621 4.331-8.6621 4.331z"/>
</g>
<g fill="#486e3f">
<path d="m131.27 9.3656 8.6621-4.331 8.6621 4.331-8.6621 4.331z"/>
<path d="m148.59 52.676 8.6621-4.331 8.6621 4.331-8.6621 4.331z"/>
<path d="m174.58 65.669 8.6621-4.331 8.6621 4.331-8.6621 4.331z"/>
<path d="m96.621 104.65 8.6621-4.331 8.6621 4.331-8.6621 4.331z"/>
<path d="m105.28 108.98 8.6621-4.331 8.6621 4.331-8.6621 4.331z"/>
</g>
<g fill="#4e7743">
<path d="m148.59 18.028 8.6621-4.331 8.6621 4.331-8.6621 4.331z"/>
<path d="m191.9 91.655 8.6621-4.331 8.6621 4.331-8.6621 4.331z"/>
<path d="m131.27 113.31 8.6621-4.331 8.6621 4.331-8.6621 4.331z"/>
</g>
<g fill="#49703f">
<path d="m157.25 22.359 8.6621-4.331 8.6621 4.331-8.6621 4.331z"/>
<path d="m139.93 31.021 8.6621-4.331 8.6621 4.331-8.6621 4.331z"/>
<path d="m209.23 65.669 8.6621-4.331 8.6621 4.331-8.6621 4.331z"/>
<path d="m209.23 91.655 8.6621-4.331 8.6621 4.331-8.6621 4.331z"/>
<path d="m148.59 70 8.6621-4.331 8.6621 4.331-8.6621 4.331z"/>
<path d="m61.972 44.014 8.6621-4.331 8.6621 4.331-8.6621 4.331z"/>
<path d="m70.634 57.007 8.6621-4.331 8.6621 4.331-8.6621 4.331z"/>
<path d="m174.58 108.98 8.6621-4.331 8.6621 4.331-8.6621 4.331z"/>
<path d="m79.296 70 8.6621-4.331 8.6621 4.331-8.6621 4.331z"/>
<path d="m113.94 87.324 8.6621-4.331 8.6621 4.331-8.6621 4.331z"/>
<path d="m44.648 61.338 8.6621-4.331 8.6621 4.331-8.6621 4.331z"/>
<path d="m165.92 121.97 8.6621-4.331 8.6621 4.331-8.6621 4.331z"/>
</g>
<g fill="#4a7140">
<path d="m165.92 26.69 8.6621-4.331 8.6621 4.331-8.6621 4.331z"/>
<path d="m183.24 35.352 8.6621-4.331 8.6621 4.331-8.6621 4.331z"/>
<path d="m157.25 39.683 8.6621-4.331 8.6621 4.331-8.6621 4.331z"/>
<path d="m96.621 26.69 8.6621-4.331 8.6621 4.331-8.6621 4.331z"/>
<path d="m105.28 31.021 8.6621-4.331 8.6621 4.331-8.6621 4.331z"/>
<path d="m105.28 65.669 8.6621-4.331 8.6621 4.331-8.6621 4.331z"/>
<path d="m70.634 74.331 8.6621-4.331 8.6621 4.331-8.6621 4.331z"/>
<path d="m70.634 82.993 8.6621-4.331 8.6621 4.331-8.6621 4.331z"/>
<path d="m53.31 91.655 8.6621-4.331 8.6621 4.331-8.6621 4.331z"/>
</g>
<g fill="#3e5f36">
<path d="m174.58 31.021 8.6621-4.331 8.6621 4.331-8.6621 4.331z"/>
<path d="m243.88 74.331 8.6621-4.331 8.6621 4.331-8.6621 4.331z"/>
<path d="m191.9 65.669 8.6621-4.331 8.6621 4.331-8.6621 4.331z"/>
<path d="m122.61 74.331 8.6621-4.331 8.6621 4.331-8.6621 4.331z"/>
</g>
<path transform="scale(2)" d="m100.28 17.676-4.332 2.166 4.332 2.166 4.3301-2.166-4.3301-2.166zm-60.635 4.332-4.332 2.1641 4.332 2.166 4.3301-2.166-4.3301-2.1641zm8.6621 8.6621-4.332 2.1641 4.332 2.166 4.3301-2.166-4.3301-2.1641zm34.648 8.6602-4.332 2.166 4.332 2.166 4.3301-2.166-4.3301-2.166z" fill="#3f6037" stroke-width=".5"/>
<g fill="#527d47">
<path d="m209.23 48.345 8.6621-4.331 8.6621 4.331-8.6621 4.331z"/>
<path d="m209.23 100.32 8.6621-4.331 8.6621 4.331-8.6621 4.331z"/>
<path d="m157.25 91.655 8.6621-4.331 8.6621 4.331-8.6621 4.331z"/>
<path d="m122.61 117.64 8.6621-4.331 8.6621 4.331-8.6621 4.331z"/>
<path d="m105.28 117.64 8.6621-4.331 8.6621 4.331-8.6621 4.331z"/>
</g>
<g fill="#517b46">
<path d="m217.89 52.676 8.6621-4.331 8.6621 4.331-8.6621 4.331z"/>
<path d="m122.61 39.683 8.6621-4.331 8.6621 4.331-8.6621 4.331z"/>
</g>
<g fill="#44673a">
<path d="m261.2 74.331 8.6621-4.331 8.6621 4.331-8.6621 4.331z"/>
<path d="m226.55 74.331 8.6621-4.331 8.6621 4.331-8.6621 4.331z"/>
<path d="m105.28 48.345 8.6621-4.331 8.6621 4.331-8.6621 4.331z"/>
<path d="m139.93 126.3 8.6621-4.331 8.6621 4.331-8.6621 4.331z"/>
</g>
<g fill="#4f7944">
<path d="m122.61 13.697 8.6621-4.331 8.6621 4.331-8.6621 4.331z"/>
<path d="m70.634 65.669 8.6621-4.331 8.6621 4.331-8.6621 4.331z"/>
<path d="m18.662 65.669 8.6621-4.331 8.6621 4.331-8.6621 4.331z"/>
</g>
<path transform="scale(2)" d="m74.297 9.0137-4.332 2.166 4.332 2.166 4.3301-2.166-4.3301-2.166zm12.992 10.828-4.3301 2.166 4.3301 2.1641 4.332-2.1641-4.332-2.166zm-51.973 17.324-4.3301 2.1641 4.3301 2.166 4.332-2.166-4.332-2.1641zm90.953 2.1641-4.332 2.166 4.332 2.166 4.3301-2.166-4.3301-2.166zm-56.305 10.828-4.3301 2.166 4.3301 2.166 4.332-2.166-4.332-2.166zm17.324 4.332-4.3301 2.1641 4.3301 2.166 4.332-2.166-4.332-2.1641z" fill="#3d5d34" stroke-width=".5"/>
<g fill="#406237">
<path d="m148.59 26.69 8.6621-4.331 8.6621 4.331-8.6621 4.331z"/>
<path d="m157.25 65.669 8.6621-4.331 8.6621 4.331-8.6621 4.331z"/>
<path d="m139.93 65.669 8.6621-4.331 8.6621 4.331-8.6621 4.331z"/>
<path d="m44.648 52.676 8.6621-4.331 8.6621 4.331-8.6621 4.331z"/>
<path d="m87.959 74.331 8.6621-4.331 8.6621 4.331-8.6621 4.331z"/>
<path d="m113.94 121.97 8.6621-4.331 8.6621 4.331-8.6621 4.331z"/>
</g>
<path transform="scale(2)" d="m87.289 15.51-4.3301 2.166 4.3301 2.166 4.332-2.166-4.332-2.166zm-4.3301 6.498-4.332 2.1641 4.332 2.166 4.3301-2.166-4.3301-2.1641zm12.992 10.826-4.3301 2.166 4.3301 2.166 4.332-2.166-4.332-2.166zm-77.959 4.332-4.3301 2.1641 4.3301 2.166 4.332-2.166-4.332-2.1641zm90.953 2.1641-4.332 2.166 4.332 2.166 4.3301-2.166-4.3301-2.166zm4.3301 2.166 4.332 2.166 4.3301-2.166-4.3301-2.166-4.332 2.166zm-25.986 8.6621-4.3301 2.166 4.3301 2.166 4.332-2.166-4.332-2.166zm-12.992 6.4961-4.332 2.166 4.332 2.166 4.3301-2.166-4.3301-2.166zm-4.332 6.498-4.3301 2.1641 4.3301 2.166 4.332-2.166-4.332-2.1641z" fill="#426539" stroke-width=".5"/>
<path transform="scale(2)" d="m91.621 17.676-4.332 2.166 4.332 2.166 4.3301 2.1641 4.332-2.1641-4.332-2.166-4.3301-2.166zm-30.318 2.166-4.3301 2.166 4.3301 2.1641 4.332-2.1641-4.332-2.166zm0 4.3301-4.3301 2.166 4.3301 2.166 4.332-2.166-4.332-2.166zm4.332 36.814-4.332 2.166 4.332 2.1641 4.3301-2.1641-4.3301-2.166z" fill="#466b3c" stroke-width=".5"/>
<g fill="#4d7643">
<path d="m200.57 52.676 8.6621-4.331 8.6621 4.331-8.6621 4.331z"/>
<path d="m139.93 108.98 8.6621-4.331 8.6621 4.331-8.6621 4.331z"/>
</g>
<path transform="scale(2)" d="m108.95 26.338-4.332 2.166 4.332 2.166 4.3301-2.166-4.3301-2.166zm-86.621 4.332-4.332 2.1641 4.332 2.166 4.3301-2.166-4.3301-2.1641zm38.979 19.488-4.3301 2.166 4.3301 2.166 4.332-2.166-4.332-2.166zm17.324 8.6621-4.3301 2.166 4.3301 2.166 4.332-2.166-4.332-2.166z" fill="#527d46" stroke-width=".5"/>
<g fill="#548049">
<path d="m217.89 61.338 8.6621-4.331 8.6621 4.331-8.6621 4.331z"/>
<path d="m122.61 31.021 8.6621-4.331 8.6621 4.331-8.6621 4.331z"/>
<path d="m157.25 74.331 8.6621-4.331 8.6621 4.331-8.6621 4.331z"/>
<path d="m122.61 65.669 8.6621-4.331 8.6621 4.331-8.6621 4.331z"/>
<path d="m53.31 57.007 8.6621-4.331 8.6621 4.331-8.6621 4.331z"/>
</g>
<g fill="#3a5832">
<path d="m235.21 70 8.6621-4.331 8.6621 4.331-8.6621 4.331z"/>
</g>
<g fill="#59874c">
<path d="m252.54 78.662 8.6621-4.331 8.6621 4.331-8.6621 4.331z"/>
<path d="m87.959 48.345 8.6621-4.331 8.6621 4.331-8.6621 4.331z"/>
<path d="m96.621 70 8.6621-4.331 8.6621 4.331-8.6621 4.331z"/>
</g>
<g fill="#395732">
<path d="m113.94 18.028 8.662-4.331 8.6621 4.331-8.6621 4.331z"/>
<path d="m44.648 70 8.6621-4.331 8.6621 4.331-8.6621 4.331z"/>
</g>
<g fill="#476b3d">
<path d="m148.59 35.352 8.6621-4.331 8.6621 4.331-8.6621 4.331z"/>
<path d="m191.9 82.993 8.6621-4.331 8.6621 4.331-8.6621 4.331z"/>
<path d="m139.93 82.993 8.6621-4.331 8.6621 4.331-8.6621 4.331z"/>
<path d="m79.296 78.662 8.6621-4.331 8.6621 4.331-8.6621 4.331z"/>
<path d="m113.94 95.986 8.662-4.331 8.6621 4.331-8.6621 4.331z"/>
</g>
<g fill="#476c3d">
<path d="m174.58 48.345 8.6621-4.331 8.6621 4.331-8.6621 4.331z"/>
<path d="m122.61 48.345 8.6621-4.331 8.6621 4.331-8.6621 4.331z"/>
<path d="m165.92 87.324 8.6621-4.331 8.6621 4.331-8.6621 4.331z"/>
<path d="m148.59 87.324 8.6621-4.331 8.6621 4.331-8.6621 4.331z"/>
<path d="m96.621 78.662 8.6621-4.331 8.6621 4.331-8.6621 4.331z"/>
<path d="m122.61 91.655 8.6621-4.331 8.6621 4.331-8.6621 4.331z"/>
<path d="m53.31 74.331 8.6621-4.331 8.6621 4.331-8.6621 4.331z"/>
</g>
<g fill="#406137">
<path d="m191.9 57.007 8.6621-4.331 8.6621 4.331-8.6621 4.331z"/>
<path d="m113.94 26.69 8.6621-4.331 8.6621 4.331-8.6621 4.331z"/>
<path d="m131.27 35.352 8.6621-4.331 8.6621 4.331-8.6621 4.331z"/>
<path d="m191.9 74.331 8.6621-4.331 8.6621 4.331-8.6621 4.331z"/>
<path d="m131.27 52.676 8.6621-4.331 8.6621 4.331-8.6621 4.331z"/>
<path d="m148.59 95.986 8.6621-4.331 8.6621 4.331-8.6621 4.331z"/>
</g>
<g fill="#4f7844">
<path d="m105.28 22.359 8.6621-4.331 8.6621 4.331-8.6621 4.331z"/>
</g>
<g fill="#547f48">
<path d="m139.93 39.683 8.6621-4.331 8.6621 4.331-8.6621 4.331z"/>
<path d="m165.92 52.676 8.6621-4.331 8.6621 4.331-8.6621 4.331z"/>
<path d="m183.24 78.662 8.6621-4.331 8.6621 4.331-8.6621 4.331z"/>
<path d="m105.28 57.007 8.6621-4.331 8.6621 4.331-8.6621 4.331z"/>
</g>
<path transform="scale(2)" d="m78.627 19.842-4.3301 2.166 4.3301 2.1641 4.332-2.1641-4.332-2.166zm4.332 41.145-4.332 2.166 4.332 2.1641 4.3301-2.1641-4.3301-2.166z" fill="#558149" stroke-width=".5"/>
<g fill="#5a8a4e">
<path d="m174.58 57.007 8.6621-4.331 8.6621 4.331-8.6621 4.331z"/>
<path d="m35.986 57.007 8.6621-4.331 8.6621 4.331-8.6621 4.331z"/>
</g>
<g fill="#395731">
<path d="m183.24 61.338 8.6621-4.331 8.6621 4.331-8.6621 4.331z"/>
</g>
<path transform="scale(2)" d="m108.95 35-4.332 2.166 4.332 2.1641 4.3301-2.1641-4.3301-2.166zm-73.629 6.4961-4.3301 2.166 4.3301 2.166 4.332-2.166-4.332-2.166z" fill="#537f48" stroke-width=".5"/>
<g fill="#3d5d35">
<path d="m217.89 78.662 8.6621-4.331 8.6621 4.331-8.6621 4.331z"/>
<path d="m87.959 31.021 8.6621-4.331 8.6621 4.331-8.6621 4.331z"/>
<path d="m200.57 104.65 8.6621-4.331 8.6621 4.331-8.6621 4.331z"/>
<path d="m87.959 100.32 8.6621-4.331 8.6621 4.331-8.6621 4.331z"/>
</g>
<g fill="#3a5932">
<path d="m113.94 35.352 8.6621-4.331 8.6621 4.331-8.6621 4.331z"/>
<path d="m200.57 78.662 8.6621-4.331 8.6621 4.331-8.6621 4.331z"/>
</g>
<path transform="scale(2)" d="m69.965 19.842-4.3301 2.166 4.3301 2.1641 4.332-2.1641-4.332-2.166zm-51.973 8.6621-4.3301 2.166 4.3301 2.1641 4.332-2.1641-4.332-2.166zm43.311 0-4.3301 2.166 4.3301 2.1641 4.332-2.1641-4.332-2.166zm-30.316 2.166-4.332 2.1641 4.332 2.166 4.3301-2.166-4.3301-2.1641zm60.635 8.6602-4.332 2.166 4.332 2.166 4.3301-2.166-4.3301-2.166zm-47.643 2.166-4.3301 2.166 4.3301 2.166 4.332-2.166-4.332-2.166zm56.305 10.828-4.332 2.166 4.332 2.1641 4.3301-2.1641-4.3301-2.166z" fill="#3f6036" stroke-width=".5"/>
<g fill="#4b7341">
<path d="m157.25 57.007 8.6621-4.331 8.6621 4.331-8.6621 4.331z"/>
<path d="m79.296 44.014 8.6621-4.331 8.6621 4.331-8.6621 4.331z"/>
<path d="m53.31 48.345 8.6621-4.331 8.6621 4.331-8.6621 4.331z"/>
<path d="m122.61 108.98 8.6621-4.331 8.6621 4.331-8.6621 4.331z"/>
</g>
<g fill="#45693c">
<path d="m217.89 87.324 8.6621-4.331 8.6621 4.331-8.6621 4.331z"/>
<path d="m165.92 95.986 8.6621-4.331 8.6621 4.331-8.6621 4.331z"/>
<path d="m105.28 74.331 8.6621-4.331 8.6621 4.331-8.6621 4.331z"/>
<path d="m79.296 104.65 8.6621-4.331 8.6621 4.331-8.6621 4.331z"/>
</g>
<path transform="scale(2)" d="m52.641 15.51-4.3301 2.166 4.3301 2.166 4.332-2.166-4.332-2.166zm17.324 17.324-4.3301 2.166 4.3301 2.166 4.332-2.166-4.332-2.166z" fill="#4c7441" stroke-width=".5"/>
<g fill="#507a45">
<path d="m105.28 39.683 8.6621-4.331 8.6621 4.331-8.6621 4.331z"/>
<path d="m131.27 61.338 8.6621-4.331 8.6621 4.331-8.6621 4.331z"/>
<path d="m79.296 61.338 8.6621-4.331 8.6621 4.331-8.6621 4.331z"/>
<path d="m148.59 113.31 8.6621-4.331 8.6621 4.331-8.6621 4.331z"/>
<path d="m44.648 87.324 8.6621-4.331 8.6621 4.331-8.6621 4.331z"/>
</g>
<g fill="#58864c">
<path d="m174.58 74.331 8.6621-4.331 8.6621 4.331-8.6621 4.331z"/>
</g>
<g fill="#4c7442">
<path d="m96.621 44.014 8.6621-4.331 8.6621 4.331-8.6621 4.331z"/>
<path d="m131.27 121.97 8.6621-4.331 8.6621 4.331-8.6621 4.331z"/>
</g>
<g fill="#3c5c34">
<path d="m122.61 57.007 8.6621-4.331 8.6621 4.331-8.6621 4.331z"/>
<path d="m96.621 113.31 8.6621-4.331 8.6621 4.331-8.6621 4.331z"/>
</g>
<path transform="scale(2)" d="m52.641 24.172-4.3301 2.166 4.3301 2.166 4.332-2.166-4.332-2.166zm8.6621 8.6621-4.3301 2.166 4.3301 2.166 4.332-2.166-4.332-2.166zm17.324 4.332-4.3301 2.1641 4.3301 2.166 4.332-2.166-4.332-2.1641z" fill="#537e47" stroke-width=".5"/>
<g fill="#57854b">
<path d="m139.93 74.331 8.6621-4.331 8.6621 4.331-8.6621 4.331z"/>
<path d="m174.58 100.32 8.6621-4.331 8.6621 4.331-8.6621 4.331z"/>
<path d="m148.59 104.65 8.6621-4.331 8.6621 4.331-8.6621 4.331z"/>
<path d="m53.31 82.993 8.6621-4.331 8.6621 4.331-8.6621 4.331z"/>
</g>
<g fill="#59884d">
<path d="m79.296 52.676 8.6621-4.331 8.6621 4.331-8.6621 4.331z"/>
</g>
<g fill="#5d8e51">
<path d="m122.61 82.993 8.6621-4.331 8.6621 4.331-8.6621 4.331z"/>
<path d="m35.986 74.331 8.6621-4.331 8.6621 4.331-8.6621 4.331z"/>
</g>
<g fill="#3b5a33">
<path d="m131.27 87.324 8.6621-4.331 8.6621 4.331-8.6621 4.331z"/>
<path d="m96.621 87.324 8.6621-4.331 8.6621 4.331-8.6621 4.331z"/>
<path d="m157.25 117.64 8.6621-4.331 8.6621 4.331-8.6621 4.331z"/>
<path d="m148.59 130.63 8.6621-4.331 8.6621 4.331-8.6621 4.331z"/>
</g>
<g fill="#3c5b34">
<path d="m139.93 100.32 8.6621-4.331 8.6621 4.331-8.6621 4.331z"/>
<path d="m44.648 78.662 8.6621-4.331 8.6621 4.331-8.6621 4.331z"/>
</g>
<g fill="#4e7744">
<path d="m96.621 95.986 8.6621-4.331 8.6621 4.331-8.6621 4.331z"/>
<path d="m27.324 70 8.6621-4.331 8.6621 4.331-8.6621 4.331z"/>
</g>
<g fill="#5d8e50">
<path d="m87.959 108.98 8.6621-4.331 8.6621 4.331-8.6621 4.331z"/>
</g>
<path d="m10 70 138.59 69.296v160.09l-138.59-69.296z" fill="#44673a"/>
<g fill="#466b3c">
<path d="m18.662 74.331 8.6621 4.331v10.006l-8.6621-4.331z"/>
<path d="m53.31 91.655 8.6621 4.331v10.006l-8.6621-4.331z"/>
<path d="m35.986 92.999 8.6621 4.331v10.006l-8.6621-4.331z"/>
<path d="m61.972 116 8.6621 4.331v10.006l-8.6621-4.331z"/>
</g>
<path transform="scale(2)" d="m13.662 39.33v5.0039l4.3301 2.166v-5.0039l-4.3301-2.166zm-8.6621 5.6758v5.002l4.3301 2.166v-5.002l-4.3301-2.166zm30.316 5.1523v5.0039l4.332 2.1641 4.3301 2.166v-5.002l-4.3301-2.166-4.332-2.166zm8.6621 9.334v5.0039l4.332 2.1641v-5.002l-4.332-2.166zm4.332 7.168v5.0039l4.3301 2.166v-5.0039l-4.3301-2.166zm21.654 0.82227v5.0039l4.332 2.1641v-5.002l-4.332-2.166zm-4.3301 7.8398v5.0039l4.3301 2.166v-5.0039l-4.3301-2.166z" fill="#496f3f" stroke-width=".5"/>
<g fill="#44683b">
<path d="m35.986 82.993 8.6621 4.331v10.006l-8.6621-4.331z"/>
<path d="m18.662 84.337 8.6621 4.331v10.006l-8.6621-4.331z"/>
<path d="m122.61 136.31 8.6621 4.331v10.006l-8.6621-4.331z"/>
</g>
<path d="m87.959 128.99 8.6621 4.331v10.006l-8.6621-4.331zm43.31 1.6436 8.6621 4.331v10.006l-8.6621-4.331zm-25.986-12.993 8.6621 4.331v10.006l-8.6621-4.331zm-17.324-8.6621 8.6621 4.331v10.006l-8.6621-4.331z" fill="#4d7643"/>
<g fill="#57844b">
<path d="m113.94 121.97 8.6621 4.331v10.006l-8.6621-4.331z"/>
<path d="m44.648 97.33 8.6621 4.331v10.006l-8.6621-4.331z"/>
<path d="m79.296 114.65 8.6621 4.331v10.006l-8.6621-4.331z"/>
<path d="m27.324 98.674 8.6621 4.331v10.006l-8.6621-4.331z"/>
</g>
<g fill="#3f6036">
<path d="m122.61 126.3 8.6621 4.331v10.006l-8.6621-4.331z"/>
</g>
<path transform="scale(2)" d="m9.3301 47.172v5.002l4.332 2.166v-5.0039l-4.332-2.1641zm4.332 7.168v5.002l4.3301 2.166 4.332 2.166v-5.0039l-4.332-2.1641-4.3301-2.166zm8.6621 9.334v5.002l4.3301 2.166v-5.002l-4.3301-2.166zm4.3301 2.166 4.332 2.1641 4.3301 2.166 4.332 2.166v-5.0039-5.002l-4.332-2.166v5.0039l-4.3301-2.166v-5.0039-5.002l-4.332-2.166v5.0039 5.002 5.0039zm12.994 6.4961v5.002l-4.332-2.1641-4.3301-2.166v5.002l4.3301 2.166 4.332 2.166 4.3301 2.166v-5.0039l4.332 2.166 4.3301 2.166v-5.0039l-4.3301-2.166v-5.002l-4.332-2.166v5.0039l-4.3301-2.166zm12.992 6.4961 4.332 2.166v-5.0039l-4.332-2.1641v5.002zm4.332-2.8379 4.3301 2.166v-5.002l-4.3301-2.166v5.002zm4.3301 2.166v5.0039l4.332 2.1641v5.0039l4.3301 2.166v-5.0039-5.002l-4.3301-2.166-4.332-2.166zm8.6621 4.332 4.332 2.1641v-5.002l-4.332-2.166v5.0039zm-17.324 1.3438v5.002l4.332 2.166v-5.0039l-4.332-2.1641zm-43.311-31.662-4.3301-2.166v5.0039l4.3301 2.166v-5.0039zm0 10.006v5.0039l4.332 2.1641v-5.002l-4.332-2.166zm4.332 22.178v5.002l4.3301 2.166v-5.002l-4.3301-2.166zm30.316 5.1523v5.0039l4.332 2.1641v-5.002l-4.332-2.166zm-8.6621 0.67188v5.0039l4.332 2.1641v-5.002l-4.332-2.166zm0 5.0039-4.3301-2.166-4.332-2.166v5.0039l4.332 2.1641 4.3301 2.166v-5.002zm-25.986 2.0156v5.0019l4.332 2.166v-5.0039l-4.332-2.1641zm30.318 5.1523v5.002l4.3301 2.166v-5.002l-4.3301-2.166zm25.986 2.9863v5.0039l4.3301 2.166v-5.0039l-4.3301-2.166zm-12.994 3.5098v5.0039l4.332 2.1641v-5.002l-4.332-2.166zm4.332 7.168v5.0039l4.3301 2.1641v-5.002l-4.3301-2.166zm-43.311-6.6465v5.0039l4.3301 2.166v-5.0039l-4.3301-2.166zm12.992 6.498v5.002l4.332 2.166v-5.0039l-4.332-2.1641zm17.324 3.6582v5.002l4.332 2.166v-5.002l-4.332-2.166zm-8.6621 0.67188v5.002l4.332 2.166v-5.002l-4.332-2.166zm34.648 2.3144v5.0039l4.332 2.166v-5.0039l-4.332-2.166zm-17.324 1.3438v5.0039l4.332 2.166v-5.0039l-4.332-2.166zm17.324 18.668v5.0039l4.332 2.166v-5.0039l-4.332-2.166z" fill="#593d29" stroke-width=".5"/>
<g fill="#3f6037">
<path d="m70.634 110.32 8.6621 4.331v10.006l-8.6621-4.331z"/>
</g>
<g fill="#476d3e">
<path d="m105.28 127.65 8.6621 4.331v10.006l-8.6621-4.331z"/>
</g>
<g fill="#44673a">
<path d="m139.93 144.97 8.6621 4.331v10.006l-8.6621-4.331z"/>
</g>
<g fill="#406237">
<path d="m35.986 103 8.6621 4.331v10.006l-8.6621-4.331z"/>
</g>
<g fill="#548049">
<path d="m105.28 137.65 8.6621 4.331v10.006l-8.6621-4.331z"/>
</g>
<g fill="#3a5832">
<path d="m122.61 146.31 8.6621 4.331v10.006l-8.6621-4.331z"/>
</g>
<g fill="#6c6c6c">
<path d="m18.662 104.35 8.6621 4.331v10.006l-8.6621-4.331z"/>
<path d="m105.28 157.66 8.6621 4.331v10.006l-8.6621-4.331z"/>
<path d="m79.296 214.71 8.6621 4.331v10.006l-8.6621-4.331z"/>
</g>
<g fill="#476b3d">
<path d="m44.648 117.34 8.6621 4.331v10.006l-8.6621-4.331z"/>
</g>
<g fill="#3e5e35">
<path d="m79.296 134.67 8.6621 4.331v10.006l-8.6621-4.331z"/>
</g>
<g fill="#45693b">
<path d="m96.621 143.33 8.6621 4.331v10.006l-8.6621-4.331z"/>
</g>
<g fill="#79553a">
<path d="m113.94 151.99 8.662 4.331v10.006l-8.662-4.331z"/>
<path d="m139.93 164.98 8.6621 4.331v10.006l-8.6621-4.331z"/>
<path d="m18.662 114.35 8.6621 4.331v10.006l-8.6621-4.331z"/>
<path d="m61.972 136.01 8.6621 4.331v10.006l-8.6621-4.331z"/>
<path d="m70.634 140.34 8.6621 4.331v10.006l-8.6621-4.331z"/>
<path d="m113.94 162 8.662 4.331v10.006l-8.662-4.331z"/>
<path d="m139.93 174.99 8.6621 4.331v10.006l-8.6621-4.331z"/>
<path d="m10 120.03 8.6621 4.331v10.006l-8.6621-4.331z"/>
<path d="m44.648 137.35 8.6621 4.331v10.006l-8.6621-4.331z"/>
<path d="m87.959 159.01 8.6621 4.331v10.006l-8.6621-4.331z"/>
<path d="m96.621 163.34 8.6621 4.331v10.006l-8.6621-4.331z"/>
<path d="m113.94 172 8.662 4.331v10.006l-8.662-4.331z"/>
<path d="m122.61 176.33 8.6621 4.331v10.006l-8.6621-4.331z"/>
<path d="m131.27 180.66 8.6621 4.331v10.006l-8.6621-4.331z"/>
<path d="m18.662 134.37 8.6621 4.331v10.006l-8.6621-4.331z"/>
<path d="m27.324 138.7 8.6621 4.331v10.006l-8.6621-4.331z"/>
<path d="m35.986 143.03 8.6621 4.331v10.006l-8.6621-4.331z"/>
<path d="m53.31 151.69 8.6621 4.331v10.006l-8.6621-4.331z"/>
<path d="m61.972 156.02 8.6621 4.331v10.006l-8.6621-4.331z"/>
<path d="m87.959 169.01 8.6621 4.331v10.006l-8.6621-4.331z"/>
<path d="m113.94 182.01 8.662 4.331v10.006l-8.662-4.331z"/>
<path d="m131.27 190.67 8.6621 4.331v10.006l-8.6621-4.331z"/>
<path d="m10 140.04 8.6621 4.331v10.006l-8.6621-4.331z"/>
<path d="m18.662 144.37 8.6621 4.331v10.006l-8.6621-4.331z"/>
<path d="m61.972 166.03 8.6621 4.331v10.006l-8.6621-4.331z"/>
<path d="m70.634 170.36 8.6621 4.331v10.006l-8.6621-4.331z"/>
<path d="m113.94 192.01 8.662 4.331v10.006l-8.662-4.331z"/>
<path d="m122.61 196.34 8.6621 4.331v10.006l-8.6621-4.331z"/>
<path d="m18.662 154.38 8.6621 4.331v10.006l-8.6621-4.331z"/>
<path d="m27.324 158.71 8.6621 4.331v10.006l-8.6621-4.331z"/>
<path d="m44.648 167.37 8.6621 4.331v10.006l-8.6621-4.331z"/>
<path d="m61.972 176.03 8.6621 4.331v10.006l-8.6621-4.331z"/>
<path d="m79.296 184.69 8.6621 4.331v10.006l-8.6621-4.331z"/>
<path d="m105.28 197.69 8.6621 4.331v10.006l-8.6621-4.331z"/>
<path d="m113.94 202.02 8.662 4.331v10.006l-8.662-4.331z"/>
<path d="m122.61 206.35 8.6621 4.331v10.006l-8.6621-4.331z"/>
<path d="m139.93 215.01 8.6621 4.331v10.006l-8.6621-4.331z"/>
<path d="m10 160.05 8.6621 4.331v10.006l-8.6621-4.331z"/>
<path d="m35.986 173.05 8.6621 4.331v10.006l-8.6621-4.331z"/>
<path d="m44.648 177.38 8.6621 4.331v10.006l-8.6621-4.331z"/>
<path d="m70.634 190.37 8.6621 4.331v10.006l-8.6621-4.331z"/>
<path d="m79.296 194.7 8.6621 4.331v10.006l-8.6621-4.331z"/>
<path d="m87.959 199.03 8.6621 4.331v10.006l-8.6621-4.331z"/>
<path d="m96.621 203.36 8.6621 4.331v10.006l-8.6621-4.331z"/>
<path d="m105.28 207.69 8.6621 4.331v10.006l-8.6621-4.331z"/>
<path d="m131.27 220.69 8.6621 4.331v10.006l-8.6621-4.331z"/>
<path d="m10 170.06 8.6621 4.331v10.006l-8.6621-4.331z"/>
<path d="m27.324 178.72 8.6621 4.331v10.006l-8.6621-4.331z"/>
<path d="m53.31 191.71 8.6621 4.331v10.006l-8.6621-4.331z"/>
<path d="m139.93 235.02 8.6621 4.331v10.006l-8.6621-4.331z"/>
<path d="m18.662 184.39 8.6621 4.331v10.006l-8.6621-4.331z"/>
<path d="m27.324 188.73 8.6621 4.331v10.006l-8.6621-4.331z"/>
<path d="m61.972 206.05 8.6621 4.331v10.006l-8.6621-4.331z"/>
<path d="m105.28 227.71 8.6621 4.331v10.006l-8.6621-4.331z"/>
<path d="m131.27 240.7 8.6621 4.331v10.006l-8.6621-4.331z"/>
<path d="m10 190.07 8.6621 4.331v10.006l-8.6621-4.331z"/>
<path d="m35.986 203.06 8.6621 4.331v10.006l-8.6621-4.331z"/>
<path d="m70.634 220.39 8.6621 4.331v10.006l-8.6621-4.331z"/>
<path d="m79.296 224.72 8.6621 4.331v10.006l-8.6621-4.331z"/>
<path d="m87.959 229.05 8.6621 4.331v10.006l-8.6621-4.331z"/>
<path d="m96.621 233.38 8.6621 4.331v10.006l-8.6621-4.331z"/>
<path d="m105.28 237.71 8.6621 4.331v10.006l-8.6621-4.331z"/>
<path d="m113.94 242.04 8.662 4.331v10.006l-8.662-4.331z"/>
<path d="m122.61 246.37 8.6621 4.331v10.006l-8.6621-4.331z"/>
<path d="m10 200.08 8.6621 4.331v10.006l-8.6621-4.331z"/>
<path d="m27.324 208.74 8.6621 4.331v10.006l-8.6621-4.331z"/>
<path d="m35.986 213.07 8.6621 4.331v10.006l-8.6621-4.331z"/>
<path d="m53.31 221.73 8.6621 4.331v10.006l-8.6621-4.331z"/>
<path d="m79.296 234.72 8.6621 4.331v10.006l-8.6621-4.331z"/>
<path d="m113.94 252.05 8.662 4.331v10.006l-8.662-4.331z"/>
<path d="m18.662 214.41 8.6621 4.331v10.006l-8.6621-4.331z"/>
<path d="m44.648 227.41 8.6621 4.331v10.006l-8.6621-4.331z"/>
<path d="m61.972 236.07 8.6621 4.331v10.006l-8.6621-4.331z"/>
<path d="m96.621 253.39 8.6621 4.331v10.006l-8.6621-4.331z"/>
<path d="m113.94 262.05 8.662 4.331v10.006l-8.662-4.331z"/>
<path d="m122.61 266.38 8.6621 4.331v10.006l-8.6621-4.331z"/>
<path d="m18.662 224.42 8.6621 4.331v10.006l-8.6621-4.331z"/>
<path d="m53.31 241.74 8.6621 4.331v10.006l-8.6621-4.331z"/>
<path d="m70.634 250.4 8.6621 4.331v10.006l-8.6621-4.331z"/>
<path d="m96.621 263.4 8.6621 4.331v10.006l-8.6621-4.331z"/>
<path d="m105.28 267.73 8.6621 4.331v10.006l-8.6621-4.331z"/>
<path d="m131.27 280.72 8.6621 4.331v10.006l-8.6621-4.331z"/>
</g>
<path transform="scale(2)" d="m5 55.012v5.002l4.3301 2.166v-5.002l-4.3301-2.166zm8.6621 4.3301v5.0039 5.002l4.3301 2.166 4.332 2.166v-5.0039l-4.332-2.1641v-5.0039l-4.3301-2.166zm12.992 6.498v5.002 5.0039l4.332 2.1641v-5.002-5.0039l-4.332-2.1641zm-21.654 9.1836v5.002l4.3301 2.166v-5.002l-4.3301-2.166zm4.3301 7.168v5.0039 5.002l4.332 2.166v-5.0039-5.002l-4.332-2.166zm0 10.006-4.3301-2.166v5.0039l4.3301 2.166v-5.0039zm12.994-13.516v5.0039l4.3301 2.166v5.002l4.332 2.166v-5.0039-5.002l-4.332-2.166-4.3301-2.166zm0 5.0039-4.332-2.166v5.0039l4.332 2.1641v-5.002zm38.979-0.52148v5.002l4.332 2.166v-5.0039l-4.332-2.1641zm-21.654 4.1797v5.0039l4.3301 2.166v-5.0039l-4.3301-2.166zm4.3301 7.1699v5.002l4.332 2.166 4.3301 2.166v-5.0039l4.332 2.166v-5.0039l-4.332-2.1641-4.3301-2.166v5.002l-4.332-2.1641zm17.324-1.3438v5.002l4.332 2.166v-5.0039l-4.332-2.1641zm4.332 7.168v5.002l4.3301 2.166 4.332 2.166v-5.0039-5.002l-4.332-2.166v5.0039l-4.3301-2.166zm-47.643-3.8086v5.002l4.332 2.166v5.002l4.3301 2.166 4.332 2.166v-5.0039l-4.332-2.1641v-5.0039l-4.3301-2.166-4.332-2.1641zm12.994 16.502v5.002l4.3301 2.166 4.332 2.166v-5.0039l-4.332-2.1641-4.3301-2.166zm-12.994-11.5-4.3301-2.166v5.0039l4.3301 2.166v-5.0039zm-4.3301 2.8379-4.332-2.166v5.0039l4.332 2.1641v-5.002zm-4.332 2.8379-4.3301-2.166v5.002 5.0039l4.3301 2.166v-5.0039-5.002zm25.986-7.0195v5.0039 5.002l4.332 2.166v-5.0039-5.002l-4.332-2.166zm8.6621 9.334v5.0039l4.332 2.1641 4.3301 2.166v-5.002l-4.3301-2.166-4.332-2.166zm12.994 1.4941v5.002l4.3301 2.166v5.002l4.332 2.166v-5.002-5.0039l-4.332-2.1641-4.3301-2.166zm12.992 1.4942v5.002l4.332 2.166v-5.0039l-4.332-2.1641zm-51.973 4.0312v5.002l4.332 2.166 4.3301 2.1641v-5.002l-4.3301-2.166-4.332-2.1641zm21.656 10.826v5.0039l4.3301 2.1641 4.332 2.166v-5.002l-4.332-2.166-4.3301-2.166zm12.992 1.4941v5.002l4.332 2.166v-5.002l-4.332-2.166zm4.332 7.168v5.0039l4.3301 2.1641 4.332 2.166v-5.002l-4.332-2.166-4.3301-2.166zm8.6621 4.332 4.3301 2.1641 4.332 2.166v-5.002-5.0039l-4.332-2.166-4.3301-2.1641v5.002 5.0039z" fill="#966c4a" stroke-width=".5"/>
<path transform="scale(2)" d="m17.992 61.508v5.0039l4.332 2.1641v-5.002l-4.332-2.166zm-12.992 3.5098v5.002l4.3301 2.166v-5.002l-4.3301-2.166zm8.6621 9.334v5.002l4.3301 2.166 4.332 2.166v-5.0039l-4.332-2.1641-4.3301-2.166zm21.654 5.8242v5.0039l4.332 2.1641 4.3301 2.166v-5.002l-4.3301-2.166-4.332-2.166zm12.994 6.4961v5.0039l4.3301 2.166 4.332 2.1641v-5.002l-4.332-2.166-4.3301-2.166zm-30.318 4.8535v5.0039l4.332 2.1641 4.3301 2.166v-5.002l-4.3301-2.166-4.332-2.166zm8.6621 9.334v5.0039l4.332 2.1641v-5.002l-4.332-2.166zm4.332 2.166 4.3301 2.166v-5.0039l-4.3301-2.166v5.0039zm0 5.002v5.0039l4.3301 2.166v-5.0039l-4.3301-2.166zm38.979-15.529v5.002l4.332 2.166v-5.0039l-4.332-2.1641zm-25.986 12.021v5.002l4.332 2.166 4.3301 2.166v-5.0039l-4.3301-2.166-4.332-2.1641zm12.994 1.4922v5.0039l4.3301 2.166 4.332 2.1641v-5.002l-4.332-2.166-4.3301-2.166zm-38.98 5.5254v5.0039l4.332 2.1641v-5.002l-4.332-2.166zm0 5.0039-4.3301-2.166v5.002l4.3301 2.166v-5.002zm30.318 5.1523v5.002l4.3301 2.166v-5.0039l-4.3301-2.1641zm0 5.002-4.332-2.166-4.3301-2.1641v5.002l4.3301 2.166 4.332 2.166v-5.0039zm17.324-1.3438v5.0039l4.3301 2.1641 4.332 2.166v-5.002l-4.332-2.166-4.3301-2.166zm0 5.0039-4.332-2.166v5.002l4.332 2.166v-5.002z" fill="#b9855c" stroke-width=".5"/>
<g fill="#878787">
<path d="m44.648 147.36 8.6621 4.331v10.006l-8.6621-4.331z"/>
<path d="m131.27 230.69 8.6621 4.331v10.006l-8.6621-4.331z"/>
<path d="m61.972 246.07 8.6621 4.331v10.006l-8.6621-4.331z"/>
</g>
<g fill="#745844">
<path d="m44.648 217.4 8.6621 4.331v10.006l-8.6621-4.331z"/>
</g>
<path d="m10 70 138.59 69.296v160.09l-138.59-69.296z" opacity=".182" stroke="#000" stroke-width=".1"/>
<path d="m148.59 139.3 138.59-69.296v160.09l-138.59 69.296z" fill="#44673a"/>
<g fill="#466b3c">
<path d="m157.25 134.97 8.6621-4.331v10.006l-8.6621 4.331z"/>
<path d="m191.9 117.64 8.6621-4.331v10.006l-8.6621 4.331z"/>
<path d="m174.58 136.31 8.6621-4.331v10.006l-8.6621 4.331z"/>
<path d="m200.57 133.32 8.6621-4.331v10.006l-8.6621 4.331z"/>
</g>
<g fill="#496f3f">
<path d="m165.92 130.63 8.6621-4.331v10.006l-8.6621 4.331z"/>
<path d="m209.23 108.98 8.6621-4.331v10.006l-8.6621 4.331z"/>
<path d="m217.89 104.65 8.6621-4.331v10.006l-8.6621 4.331z"/>
<path d="m278.52 74.331 8.6621-4.331v10.006l-8.6621 4.331z"/>
<path d="m226.55 110.32 8.6621-4.331v10.006l-8.6621 4.331z"/>
<path d="m148.59 159.31 8.6621-4.331v10.006l-8.6621 4.331z"/>
<path d="m235.21 116 8.6621-4.331v10.006l-8.6621 4.331z"/>
<path d="m269.86 98.674 8.6621-4.331v10.006l-8.6621 4.331z"/>
</g>
<g fill="#44683b">
<path d="m174.58 126.3 8.6621-4.331v10.006l-8.6621 4.331z"/>
<path d="m157.25 144.97 8.6621-4.331v10.006l-8.6621 4.331z"/>
<path d="m261.2 92.999 8.6621-4.331v10.006l-8.6621 4.331z"/>
</g>
<g fill="#4d7643">
<path d="m226.55 100.32 8.6621-4.331v10.006l-8.6621 4.331z"/>
<path d="m243.88 91.655 8.6621-4.331v10.006l-8.6621 4.331z"/>
<path d="m269.86 78.662 8.6621-4.331v10.006l-8.6621 4.331z"/>
<path d="m226.55 120.33 8.6621-4.331v10.006l-8.6621 4.331z"/>
</g>
<g fill="#57844b">
<path d="m252.54 87.324 8.6621-4.331v10.006l-8.6621 4.331z"/>
<path d="m183.24 131.98 8.6621-4.331v10.006l-8.6621 4.331z"/>
<path d="m217.89 114.65 8.6621-4.331v10.006l-8.6621 4.331z"/>
<path d="m165.92 150.65 8.6621-4.331v10.006l-8.6621 4.331z"/>
</g>
<g fill="#3f6036">
<path d="m261.2 82.993 8.6621-4.331v10.006l-8.6621 4.331z"/>
</g>
<path transform="scale(2)" d="m143.59 45.006-4.332 2.166v5.002l4.332-2.166v-5.002zm-4.332 7.168-4.3301 2.166-4.332 2.166v5.002l4.332-2.166v5.0039l4.3301-2.166v-5.002-5.0039zm-8.6621 4.332v-5.0039l-4.3301 2.166v5.002l4.3301-2.1641zm-4.3301 2.1641-4.332 2.166v5.0039l4.332-2.166v-5.0039zm-4.332 7.1699-4.3301 2.1641v-5.002l-4.332 2.166v5.002l-4.3301 2.166v5.002l-4.332 2.166-4.3301 2.166v5.002l4.3301-2.1641 4.332-2.166 4.3301-2.166v-5.002l4.332-2.166 4.3301-2.166v-5.002zm0 5.002v5.0039l4.332-2.166v-5.0039l-4.332 2.166zm-12.992 1.4941v-5.0039-5.002l-4.332 2.166v5.002l-4.3301 2.166v-5.0039-5.002l-4.332 2.166v5.002 5.0039 5.002l4.332-2.166 4.3301-2.1641 4.332-2.166zm-12.994 6.4961-4.3301 2.166v5.002l4.3301-2.1641v-5.0039zm-4.3301 2.166v-5.0039l-4.332 2.166-4.3301 2.166v5.002l4.3301-2.1641 4.332-2.166zm-8.6621-0.67188v-5.0039l-4.332 2.166v5.0039l4.332-2.166zm-4.332 2.166-4.3301 2.1641v5.0039l4.3301-2.166v-5.002zm60.635-5.3027-4.3301 2.1641v5.0039l4.3301-2.166v-5.002zm-21.654 5.8242-4.332 2.166v5.002l4.332-2.166v-5.002zm25.986 7.0176-4.332 2.166v5.0039l4.332-2.166v-5.0039zm-60.635 0.30078-4.332 2.166v5.002l4.332-2.166v-5.002zm25.986 2.0156-4.332 2.166v5.002l4.332-2.166v-5.002zm-4.332 7.168-4.3301 2.166-4.332 2.166v5.002l4.332-2.166 4.3301-2.1641v-5.0039zm21.656-5.8242-4.332 2.166v5.002l4.332-2.166v-5.002zm0 5.002v5.0039l4.3301-2.166v-5.002l-4.3301 2.1641zm-12.994 1.4941-4.3301 2.166v5.002l4.3301-2.1641v-5.0039zm-25.986 7.9902-4.3301 2.166v5.002l4.3301-2.1641v-5.0039zm38.98 0.52149-4.332 2.166v5.0039l4.332-2.166v-5.0039zm17.324 1.3438-4.332 2.166v5.0039l4.332-2.166v-5.0039zm-25.986 2.9883-4.332 2.166v5.002l4.332-2.166v-5.002zm-8.6621 9.334-4.332 2.1641v5.0039l4.332-2.166v-5.002zm-25.986 2.9863-4.332 2.166v5.002l4.332-2.1641v-5.0039zm17.324 1.3438-4.332 2.166v5.002l4.332-2.1641v-5.0039zm-12.994 6.4961-4.3301 2.166v5.0039l4.3301-2.166v-5.0039z" fill="#593d29" stroke-width=".5"/>
<g fill="#3f6037">
<path d="m209.23 118.99 8.6621-4.331v10.006l-8.6621 4.331z"/>
</g>
<g fill="#476d3e">
<path d="m243.88 101.66 8.6621-4.331v10.006l-8.6621 4.331z"/>
</g>
<g fill="#44673a">
<path d="m278.52 84.337 8.6621-4.331v10.006l-8.6621 4.331z"/>
</g>
<g fill="#406237">
<path d="m174.58 146.31 8.6621-4.331v10.006l-8.6621 4.331z"/>
</g>
<g fill="#548049">
<path d="m243.88 111.67 8.6621-4.331v10.006l-8.6621 4.331z"/>
</g>
<g fill="#3a5832">
<path d="m261.2 103 8.6621-4.331v10.006l-8.6621 4.331z"/>
</g>
<g fill="#6c6c6c">
<path d="m157.25 164.98 8.6621-4.331v10.006l-8.6621 4.331z"/>
<path d="m243.88 131.68 8.6621-4.331v10.006l-8.6621 4.331z"/>
<path d="m217.89 214.71 8.6621-4.331v10.006l-8.6621 4.331z"/>
</g>
<g fill="#476b3d">
<path d="m183.24 151.99 8.6621-4.331v10.006l-8.6621 4.331z"/>
</g>
<g fill="#3e5e35">
<path d="m217.89 134.67 8.6621-4.331v10.006l-8.6621 4.331z"/>
</g>
<g fill="#45693b">
<path d="m235.21 126 8.6621-4.331v10.006l-8.6621 4.331z"/>
</g>
<g fill="#79553a">
<path d="m252.54 117.34 8.6621-4.331v10.006l-8.6621 4.331z"/>
<path d="m278.52 104.35 8.6621-4.331v10.006l-8.6621 4.331z"/>
<path d="m157.25 174.99 8.6621-4.331v10.006l-8.6621 4.331z"/>
<path d="m200.57 153.33 8.6621-4.331v10.006l-8.6621 4.331z"/>
<path d="m209.23 149 8.6621-4.331v10.006l-8.6621 4.331z"/>
<path d="m252.54 127.35 8.6621-4.331v10.006l-8.6621 4.331z"/>
<path d="m278.52 114.35 8.6621-4.331v10.006l-8.6621 4.331z"/>
<path d="m148.59 189.33 8.6621-4.331v10.006l-8.6621 4.331z"/>
<path d="m183.24 172 8.6621-4.331v10.006l-8.6621 4.331z"/>
<path d="m226.55 150.35 8.6621-4.331v10.006l-8.6621 4.331z"/>
<path d="m235.21 146.02 8.6621-4.331v10.006l-8.6621 4.331z"/>
<path d="m252.54 137.35 8.6621-4.331v10.006l-8.6621 4.331z"/>
<path d="m261.2 133.02 8.6621-4.331v10.006l-8.6621 4.331z"/>
<path d="m269.86 128.69 8.6621-4.331v10.006l-8.6621 4.331z"/>
<path d="m157.25 195 8.6621-4.331v10.006l-8.6621 4.331z"/>
<path d="m165.92 190.67 8.6621-4.331v10.006l-8.6621 4.331z"/>
<path d="m174.58 186.34 8.6621-4.331v10.006l-8.6621 4.331z"/>
<path d="m191.9 177.68 8.6621-4.331v10.006l-8.6621 4.331z"/>
<path d="m200.57 173.35 8.6621-4.331v10.006l-8.6621 4.331z"/>
<path d="m226.55 160.35 8.6621-4.331v10.006l-8.6621 4.331z"/>
<path d="m252.54 147.36 8.6621-4.331v10.006l-8.6621 4.331z"/>
<path d="m269.86 138.7 8.6621-4.331v10.006l-8.6621 4.331z"/>
<path d="m148.59 209.34 8.6621-4.331v10.006l-8.6621 4.331z"/>
<path d="m157.25 205.01 8.6621-4.331v10.006l-8.6621 4.331z"/>
<path d="m200.57 183.35 8.6621-4.331v10.006l-8.6621 4.331z"/>
<path d="m209.23 179.02 8.6621-4.331v10.006l-8.6621 4.331z"/>
<path d="m252.54 157.36 8.6621-4.331v10.006l-8.6621 4.331z"/>
<path d="m261.2 153.03 8.6621-4.331v10.006l-8.6621 4.331z"/>
<path d="m157.25 215.01 8.6621-4.331v10.006l-8.6621 4.331z"/>
<path d="m165.92 210.68 8.6621-4.331v10.006l-8.6621 4.331z"/>
<path d="m183.24 202.02 8.6621-4.331v10.006l-8.6621 4.331z"/>
<path d="m200.57 193.36 8.6621-4.331v10.006l-8.6621 4.331z"/>
<path d="m217.89 184.69 8.6621-4.331v10.006l-8.6621 4.331z"/>
<path d="m243.88 171.7 8.6621-4.331v10.006l-8.6621 4.331z"/>
<path d="m252.54 167.37 8.6621-4.331v10.006l-8.6621 4.331z"/>
<path d="m261.2 163.04 8.6621-4.331v10.006l-8.6621 4.331z"/>
<path d="m278.52 154.38 8.6621-4.331v10.006l-8.6621 4.331z"/>
<path d="m148.59 229.35 8.6621-4.331v10.006l-8.6621 4.331z"/>
<path d="m174.58 216.36 8.6621-4.331v10.006l-8.6621 4.331z"/>
<path d="m183.24 212.02 8.6621-4.331v10.006l-8.6621 4.331z"/>
<path d="m209.23 199.03 8.6621-4.331v10.006l-8.6621 4.331z"/>
<path d="m217.89 194.7 8.6621-4.331v10.006l-8.6621 4.331z"/>
<path d="m226.55 190.37 8.6621-4.331v10.006l-8.6621 4.331z"/>
<path d="m235.21 186.04 8.6621-4.331v10.006l-8.6621 4.331z"/>
<path d="m243.88 181.71 8.6621-4.331v10.006l-8.6621 4.331z"/>
<path d="m269.86 168.71 8.6621-4.331v10.006l-8.6621 4.331z"/>
<path d="m148.59 239.35 8.6621-4.331v10.006l-8.6621 4.331z"/>
<path d="m165.92 230.69 8.6621-4.331v10.006l-8.6621 4.331z"/>
<path d="m191.9 217.7 8.6621-4.331v10.006l-8.6621 4.331z"/>
<path d="m278.52 174.39 8.6621-4.331v10.006l-8.6621 4.331z"/>
<path d="m157.25 245.03 8.6621-4.331v10.006l-8.6621 4.331z"/>
<path d="m165.92 240.7 8.6621-4.331v10.006l-8.6621 4.331z"/>
<path d="m200.57 223.37 8.6621-4.331v10.006l-8.6621 4.331z"/>
<path d="m243.88 201.72 8.6621-4.331v10.006l-8.6621 4.331z"/>
<path d="m269.86 188.73 8.6621-4.331v10.006l-8.6621 4.331z"/>
<path d="m148.59 259.37 8.6621-4.331v10.006l-8.6621 4.331z"/>
<path d="m174.58 246.37 8.6621-4.331v10.006l-8.6621 4.331z"/>
<path d="m209.23 229.05 8.6621-4.331v10.006l-8.6621 4.331z"/>
<path d="m217.89 224.72 8.6621-4.331v10.006l-8.6621 4.331z"/>
<path d="m226.55 220.39 8.6621-4.331v10.006l-8.6621 4.331z"/>
<path d="m235.21 216.06 8.6621-4.331v10.006l-8.6621 4.331z"/>
<path d="m243.88 211.72 8.6621-4.331v10.006l-8.6621 4.331z"/>
<path d="m252.54 207.39 8.6621-4.331v10.006l-8.6621 4.331z"/>
<path d="m261.2 203.06 8.6621-4.331v10.006l-8.6621 4.331z"/>
<path d="m148.59 269.37 8.6621-4.331v10.006l-8.6621 4.331z"/>
<path d="m165.92 260.71 8.6621-4.331v10.006l-8.6621 4.331z"/>
<path d="m174.58 256.38 8.6621-4.331v10.006l-8.6621 4.331z"/>
<path d="m191.9 247.72 8.6621-4.331v10.006l-8.6621 4.331z"/>
<path d="m217.89 234.72 8.6621-4.331v10.006l-8.6621 4.331z"/>
<path d="m252.54 217.4 8.6621-4.331v10.006l-8.6621 4.331z"/>
<path d="m157.25 275.05 8.6621-4.331v10.006l-8.6621 4.331z"/>
<path d="m183.24 262.05 8.6621-4.331v10.006l-8.6621 4.331z"/>
<path d="m200.57 253.39 8.6621-4.331v10.006l-8.6621 4.331z"/>
<path d="m235.21 236.07 8.6621-4.331v10.006l-8.6621 4.331z"/>
<path d="m252.54 227.41 8.6621-4.331v10.006l-8.6621 4.331z"/>
<path d="m261.2 223.07 8.6621-4.331v10.006l-8.6621 4.331z"/>
<path d="m157.25 285.05 8.6621-4.331v10.006l-8.6621 4.331z"/>
<path d="m191.9 267.73 8.6621-4.331v10.006l-8.6621 4.331z"/>
<path d="m209.23 259.07 8.6621-4.331v10.006l-8.6621 4.331z"/>
<path d="m235.21 246.07 8.6621-4.331v10.006l-8.6621 4.331z"/>
<path d="m243.88 241.74 8.6621-4.331v10.006l-8.6621 4.331z"/>
<path d="m269.86 228.75 8.6621-4.331v10.006l-8.6621 4.331z"/>
</g>
<path transform="scale(2)" d="m134.93 59.342-4.332 2.166v5.0039l4.332-2.166v-5.0039zm8.6621 5.6758-4.332 2.166v5.002l-4.3301 2.166v5.002l4.3301-2.1641 4.332-2.166v-5.0039-5.002zm-8.6621 9.334v-5.0039l-4.332 2.166v5.0039l4.332-2.166zm-34.648 2.3145-4.332 2.166v5.0039 5.002l4.332-2.166v-5.002-5.0039zm25.986 2.0156-4.332 2.166-4.3301 2.166v5.002l-4.332 2.166v5.0039l4.332-2.166 4.3301-2.166v-5.002l4.332-2.166v-5.0039zm-12.994 11.5v-5.002l-4.3301 2.1641v5.0039l4.3301-2.166zm30.318-10.156-4.332 2.166v5.0039l4.332-2.166v-5.0039zm-56.305 3.1387-4.3301 2.1641v5.0039 5.002l4.3301-2.1641 4.332-2.166v-5.0039l-4.332 2.166v-5.002zm-8.6621 4.3301-4.3301 2.166v5.002l4.3301-2.1641v-5.0039zm56.305 1.8652-4.332 2.166-4.3301 2.166v5.002l4.3301-2.1641v5.002l4.332-2.166v-5.002-5.0039zm-34.648 2.3164-4.332 2.166-4.3301 2.1641v5.0039l4.3301-2.166v5.0039l4.332-2.166v-5.0039-5.002zm-8.6621 9.334-4.332 2.166v5.002l4.332-2.166v-5.002zm51.973-0.97266-4.332 2.166-4.3301 2.166v5.002 5.0039l4.3301-2.166 4.332-2.166v-5.002-5.0039zm-8.6621 14.338-4.332 2.166-4.3301 2.1641v5.0039l4.3301-2.166 4.332-2.166v-5.002zm-8.6621 4.3301v-5.002l-4.332 2.166v5.002l4.332-2.166zm-4.332-17.846-4.3301 2.166-4.332 2.166v5.002l4.332-2.166 4.3301-2.1641v-5.0039zm-12.992 1.4941-4.332 2.166v5.002 5.0039l4.332-2.166v-5.0039-5.002zm-30.318 5.1523-4.3301 2.166v5.002l4.3301-2.1641v-5.0039zm0 5.0039v5.002 5.002l4.332-2.1641v-5.0039-5.002l-4.332 2.166zm0 10.004-4.3301 2.166v5.0039l4.3301-2.166v-5.0039zm17.324-8.6602-4.3301 2.1641-4.332 2.166v5.002l4.332-2.1641v5.002l4.3301-2.166 4.332-2.1641v-5.0039l-4.332 2.166v-5.002zm4.332 7.8398v5.002l4.3301-2.166 4.332-2.1641v-5.0039l-4.332 2.166-4.3301 2.166zm-12.994 1.4922-4.3301 2.166v5.0039l4.3301-2.166v-5.0039zm-4.3301 7.1699-4.332 2.1641v5.0039l4.332-2.166v-5.002zm-4.332 7.168-4.3301 2.166v5.002 5.0039l4.3301-2.166v-5.0039-5.002zm38.98-14.486-4.332 2.1641-4.3301 2.166v5.0039l4.3301-2.166 4.332-2.166v-5.002zm-21.656 10.826-4.3301 2.166-4.332 2.166v5.002l4.332-2.1641 4.3301-2.166v-5.0039z" fill="#966c4a" stroke-width=".5"/>
<path transform="scale(2)" d="m143.59 60.014-4.332 2.166v5.0039l4.332-2.166v-5.0039zm-17.324 13.666-4.332 2.166-4.3301 2.1641v5.0039l4.3301-2.166 4.332-2.166v-5.002zm-12.994 6.4961-4.3301 2.166-4.332 2.166v5.002l4.332-2.166 4.3301-2.1641v-5.0039zm-21.654 0.82227-4.332 2.166v5.002l4.332-2.166v-5.002zm43.311 3.3594-4.332 2.166-4.3301 2.1641v5.0039l4.3301-2.166 4.332-2.166v-5.002zm8.6621 10.678-4.332 2.166-4.3301 2.1641v5.0039l4.3301-2.166 4.332-2.166v-5.002zm-8.6621 9.334-4.332 2.166v5.002l4.332-2.166v-5.002zm-12.994-8.5117-4.3301 2.1641-4.332 2.166v5.0039l4.332-2.166 4.3301-2.166v-5.002zm-30.316 0.14844-4.332 2.166-4.3301 2.166v5.002l4.3301-2.1641 4.332-2.166v-5.0039zm-12.994 1.4941-4.3301 2.166v5.002l4.3301-2.1641v-5.0039zm25.986 7.0195-4.3301 2.1641v5.0039l4.3301-2.166v-5.002zm-4.3301 7.168-4.332 2.166v5.002l4.332-2.166v-5.002zm0 5.002v5.0039l4.3301-2.166v-5.002l-4.3301 2.1641zm-4.332-2.8359v-5.0039l-4.3301 2.166-4.332 2.166v5.002l4.332-2.166 4.3301-2.1641zm25.986-2.9883-4.3301 2.166v5.002l4.3301-2.1641v-5.0039zm-4.3301 7.168-4.332 2.166-4.3301 2.166v5.002l4.3301-2.166 4.332-2.1641v-5.0039zm-25.986 12.994-4.332 2.1641v5.0039l4.332-2.166v-5.002zm-4.332 7.168-4.3301 2.166v5.002l4.3301-2.166v-5.002z" fill="#b9855c" stroke-width=".5"/>
<g fill="#878787">
<path d="m183.24 182.01 8.6621-4.331v10.006l-8.6621 4.331z"/>
<path d="m269.86 178.72 8.6621-4.331v10.006l-8.6621 4.331z"/>
<path d="m200.57 263.4 8.6621-4.331v10.006l-8.6621 4.331z"/>
</g>
<g fill="#745844">
<path d="m183.24 252.05 8.6621-4.331v10.006l-8.6621 4.331z"/>
</g>
<path d="m148.59 139.3 138.59-69.296v160.09l-138.59 69.296z" opacity=".392" stroke="#000" stroke-width=".1"/>
</svg>
